<svg width="175" height="32" viewBox="0 0 175 32" fill="none" xmlns="http://www.w3.org/2000/svg">
<g filter="url(#filter0_d_1_223)">
<mask id="path-1-outside-1_1_223" maskUnits="userSpaceOnUse" x="39" y="0" width="132" height="24" fill="black">
<rect fill="white" x="39" width="132" height="24"/>
<path d="M43.5494 13.3731V19.2048H53.1172V22.5989H40V1H52.9629V4.39411H43.5494V10.0098H52.1913V13.3731H43.5494Z"/>
<path d="M67.786 14.8233H56.3663V11.6143H67.786V14.8233Z"/>
<path d="M88.9823 1H92.7786V22.5989H89.2292V7.20196L82.6552 18.0631H82.2231L75.6491 7.17111V22.5989H72.0997V1H75.9269L82.4392 11.7994L88.9823 1Z"/>
<path d="M111.778 16.3043H99.4937C99.7406 17.4563 100.296 18.3511 101.16 18.9888C102.045 19.6265 103.136 19.9453 104.432 19.9453C106.181 19.9453 107.508 19.3076 108.413 18.0323L111.16 19.6367C109.658 21.8789 107.405 23 104.401 23C101.911 23 99.8846 22.2389 98.3208 20.7167C96.7776 19.1739 96.006 17.23 96.006 14.885C96.006 12.6017 96.7674 10.6784 98.29 9.11501C99.792 7.55166 101.747 6.76999 104.154 6.76999C106.397 6.76999 108.249 7.56195 109.71 9.14586C111.171 10.7298 111.901 12.6531 111.901 14.9158C111.901 15.3273 111.86 15.7901 111.778 16.3043ZM99.4628 13.5891H108.537C108.31 12.3754 107.796 11.4395 106.994 10.7812C106.212 10.123 105.255 9.79383 104.123 9.79383C102.889 9.79383 101.86 10.1332 101.037 10.8121C100.214 11.4909 99.6891 12.4165 99.4628 13.5891Z"/>
<path d="M122.951 6.76999C124.741 6.76999 126.171 7.34596 127.241 8.4979C128.332 9.62927 128.877 11.172 128.877 13.1262V22.5989H125.544V13.4656C125.544 12.3137 125.235 11.4292 124.618 10.8121C124.001 10.195 123.157 9.88639 122.087 9.88639C120.873 9.88639 119.916 10.2669 119.217 11.028C118.517 11.7686 118.167 12.8691 118.167 14.3296V22.5989H114.834V7.17111H118.167V9.14586C119.196 7.56195 120.791 6.76999 122.951 6.76999Z"/>
<path d="M141.077 7.17111V10.3801H137.25V17.7854C137.25 18.4231 137.394 18.8859 137.682 19.1739C137.97 19.4413 138.392 19.5956 138.948 19.6367C139.524 19.6573 140.234 19.647 141.077 19.6059V22.5989C138.526 22.9074 136.695 22.6914 135.584 21.9509C134.472 21.1898 133.917 19.8013 133.917 17.7854V10.3801H131.077V7.17111H133.917V3.83871L137.25 2.85133V7.17111H141.077Z"/>
<path d="M156.523 20.655C154.959 22.2183 153.035 23 150.751 23C148.468 23 146.544 22.2183 144.98 20.655C143.396 19.0711 142.603 17.1477 142.603 14.885C142.603 12.6223 143.396 10.6989 144.98 9.11501C146.544 7.55166 148.468 6.76999 150.751 6.76999C153.035 6.76999 154.959 7.55166 156.523 9.11501C158.107 10.6989 158.9 12.6223 158.9 14.885C158.9 17.1477 158.107 19.0711 156.523 20.655ZM145.937 14.885C145.937 16.2838 146.4 17.446 147.326 18.3717C148.252 19.2973 149.393 19.7602 150.751 19.7602C152.11 19.7602 153.251 19.2973 154.177 18.3717C155.103 17.446 155.566 16.2838 155.566 14.885C155.566 13.4862 155.103 12.324 154.177 11.3983C153.251 10.4726 152.11 10.0098 150.751 10.0098C149.393 10.0098 148.252 10.4726 147.326 11.3983C146.4 12.324 145.937 13.4862 145.937 14.885Z"/>
<path d="M165.247 7.17111V9.76297C166.091 7.84993 167.675 6.89341 170 6.89341V10.5035C168.745 10.4212 167.634 10.7298 166.667 11.4292C165.72 12.108 165.247 13.2394 165.247 14.8233V22.5989H161.914V7.17111H165.247Z"/>
</mask>
<path d="M43.5494 13.3731V19.2048H53.1172V22.5989H40V1H52.9629V4.39411H43.5494V10.0098H52.1913V13.3731H43.5494Z" fill="#FDFDFD"/>
<path d="M67.786 14.8233H56.3663V11.6143H67.786V14.8233Z" fill="#FDFDFD"/>
<path d="M88.9823 1H92.7786V22.5989H89.2292V7.20196L82.6552 18.0631H82.2231L75.6491 7.17111V22.5989H72.0997V1H75.9269L82.4392 11.7994L88.9823 1Z" fill="#FDFDFD"/>
<path d="M111.778 16.3043H99.4937C99.7406 17.4563 100.296 18.3511 101.16 18.9888C102.045 19.6265 103.136 19.9453 104.432 19.9453C106.181 19.9453 107.508 19.3076 108.413 18.0323L111.16 19.6367C109.658 21.8789 107.405 23 104.401 23C101.911 23 99.8846 22.2389 98.3208 20.7167C96.7776 19.1739 96.006 17.23 96.006 14.885C96.006 12.6017 96.7674 10.6784 98.29 9.11501C99.792 7.55166 101.747 6.76999 104.154 6.76999C106.397 6.76999 108.249 7.56195 109.71 9.14586C111.171 10.7298 111.901 12.6531 111.901 14.9158C111.901 15.3273 111.86 15.7901 111.778 16.3043ZM99.4628 13.5891H108.537C108.31 12.3754 107.796 11.4395 106.994 10.7812C106.212 10.123 105.255 9.79383 104.123 9.79383C102.889 9.79383 101.86 10.1332 101.037 10.8121C100.214 11.4909 99.6891 12.4165 99.4628 13.5891Z" fill="#FDFDFD"/>
<path d="M122.951 6.76999C124.741 6.76999 126.171 7.34596 127.241 8.4979C128.332 9.62927 128.877 11.172 128.877 13.1262V22.5989H125.544V13.4656C125.544 12.3137 125.235 11.4292 124.618 10.8121C124.001 10.195 123.157 9.88639 122.087 9.88639C120.873 9.88639 119.916 10.2669 119.217 11.028C118.517 11.7686 118.167 12.8691 118.167 14.3296V22.5989H114.834V7.17111H118.167V9.14586C119.196 7.56195 120.791 6.76999 122.951 6.76999Z" fill="#FDFDFD"/>
<path d="M141.077 7.17111V10.3801H137.25V17.7854C137.25 18.4231 137.394 18.8859 137.682 19.1739C137.97 19.4413 138.392 19.5956 138.948 19.6367C139.524 19.6573 140.234 19.647 141.077 19.6059V22.5989C138.526 22.9074 136.695 22.6914 135.584 21.9509C134.472 21.1898 133.917 19.8013 133.917 17.7854V10.3801H131.077V7.17111H133.917V3.83871L137.25 2.85133V7.17111H141.077Z" fill="#FDFDFD"/>
<path d="M156.523 20.655C154.959 22.2183 153.035 23 150.751 23C148.468 23 146.544 22.2183 144.98 20.655C143.396 19.0711 142.603 17.1477 142.603 14.885C142.603 12.6223 143.396 10.6989 144.98 9.11501C146.544 7.55166 148.468 6.76999 150.751 6.76999C153.035 6.76999 154.959 7.55166 156.523 9.11501C158.107 10.6989 158.9 12.6223 158.9 14.885C158.9 17.1477 158.107 19.0711 156.523 20.655ZM145.937 14.885C145.937 16.2838 146.4 17.446 147.326 18.3717C148.252 19.2973 149.393 19.7602 150.751 19.7602C152.11 19.7602 153.251 19.2973 154.177 18.3717C155.103 17.446 155.566 16.2838 155.566 14.885C155.566 13.4862 155.103 12.324 154.177 11.3983C153.251 10.4726 152.11 10.0098 150.751 10.0098C149.393 10.0098 148.252 10.4726 147.326 11.3983C146.4 12.324 145.937 13.4862 145.937 14.885Z" fill="#FDFDFD"/>
<path d="M165.247 7.17111V9.76297C166.091 7.84993 167.675 6.89341 170 6.89341V10.5035C168.745 10.4212 167.634 10.7298 166.667 11.4292C165.72 12.108 165.247 13.2394 165.247 14.8233V22.5989H161.914V7.17111H165.247Z" fill="#FDFDFD"/>
<path d="M43.5494 13.3731V19.2048H53.1172V22.5989H40V1H52.9629V4.39411H43.5494V10.0098H52.1913V13.3731H43.5494Z" stroke="black" stroke-width="2" mask="url(#path-1-outside-1_1_223)"/>
<path d="M67.786 14.8233H56.3663V11.6143H67.786V14.8233Z" stroke="black" stroke-width="2" mask="url(#path-1-outside-1_1_223)"/>
<path d="M88.9823 1H92.7786V22.5989H89.2292V7.20196L82.6552 18.0631H82.2231L75.6491 7.17111V22.5989H72.0997V1H75.9269L82.4392 11.7994L88.9823 1Z" stroke="black" stroke-width="2" mask="url(#path-1-outside-1_1_223)"/>
<path d="M111.778 16.3043H99.4937C99.7406 17.4563 100.296 18.3511 101.16 18.9888C102.045 19.6265 103.136 19.9453 104.432 19.9453C106.181 19.9453 107.508 19.3076 108.413 18.0323L111.16 19.6367C109.658 21.8789 107.405 23 104.401 23C101.911 23 99.8846 22.2389 98.3208 20.7167C96.7776 19.1739 96.006 17.23 96.006 14.885C96.006 12.6017 96.7674 10.6784 98.29 9.11501C99.792 7.55166 101.747 6.76999 104.154 6.76999C106.397 6.76999 108.249 7.56195 109.71 9.14586C111.171 10.7298 111.901 12.6531 111.901 14.9158C111.901 15.3273 111.86 15.7901 111.778 16.3043ZM99.4628 13.5891H108.537C108.31 12.3754 107.796 11.4395 106.994 10.7812C106.212 10.123 105.255 9.79383 104.123 9.79383C102.889 9.79383 101.86 10.1332 101.037 10.8121C100.214 11.4909 99.6891 12.4165 99.4628 13.5891Z" stroke="black" stroke-width="2" mask="url(#path-1-outside-1_1_223)"/>
<path d="M122.951 6.76999C124.741 6.76999 126.171 7.34596 127.241 8.4979C128.332 9.62927 128.877 11.172 128.877 13.1262V22.5989H125.544V13.4656C125.544 12.3137 125.235 11.4292 124.618 10.8121C124.001 10.195 123.157 9.88639 122.087 9.88639C120.873 9.88639 119.916 10.2669 119.217 11.028C118.517 11.7686 118.167 12.8691 118.167 14.3296V22.5989H114.834V7.17111H118.167V9.14586C119.196 7.56195 120.791 6.76999 122.951 6.76999Z" stroke="black" stroke-width="2" mask="url(#path-1-outside-1_1_223)"/>
<path d="M141.077 7.17111V10.3801H137.25V17.7854C137.25 18.4231 137.394 18.8859 137.682 19.1739C137.97 19.4413 138.392 19.5956 138.948 19.6367C139.524 19.6573 140.234 19.647 141.077 19.6059V22.5989C138.526 22.9074 136.695 22.6914 135.584 21.9509C134.472 21.1898 133.917 19.8013 133.917 17.7854V10.3801H131.077V7.17111H133.917V3.83871L137.25 2.85133V7.17111H141.077Z" stroke="black" stroke-width="2" mask="url(#path-1-outside-1_1_223)"/>
<path d="M156.523 20.655C154.959 22.2183 153.035 23 150.751 23C148.468 23 146.544 22.2183 144.98 20.655C143.396 19.0711 142.603 17.1477 142.603 14.885C142.603 12.6223 143.396 10.6989 144.98 9.11501C146.544 7.55166 148.468 6.76999 150.751 6.76999C153.035 6.76999 154.959 7.55166 156.523 9.11501C158.107 10.6989 158.9 12.6223 158.9 14.885C158.9 17.1477 158.107 19.0711 156.523 20.655ZM145.937 14.885C145.937 16.2838 146.4 17.446 147.326 18.3717C148.252 19.2973 149.393 19.7602 150.751 19.7602C152.11 19.7602 153.251 19.2973 154.177 18.3717C155.103 17.446 155.566 16.2838 155.566 14.885C155.566 13.4862 155.103 12.324 154.177 11.3983C153.251 10.4726 152.11 10.0098 150.751 10.0098C149.393 10.0098 148.252 10.4726 147.326 11.3983C146.4 12.324 145.937 13.4862 145.937 14.885Z" stroke="black" stroke-width="2" mask="url(#path-1-outside-1_1_223)"/>
<path d="M165.247 7.17111V9.76297C166.091 7.84993 167.675 6.89341 170 6.89341V10.5035C168.745 10.4212 167.634 10.7298 166.667 11.4292C165.72 12.108 165.247 13.2394 165.247 14.8233V22.5989H161.914V7.17111H165.247Z" stroke="black" stroke-width="2" mask="url(#path-1-outside-1_1_223)"/>
</g>
<path d="M0 10.2632C0 5.14726 4.17868 1 9.33333 1H28V2.15789C28 7.2738 23.8213 11.4211 18.6667 11.4211H0V10.2632Z" fill="#FA9F42"/>
<path d="M0 19.5263C0 16.3289 2.61167 13.7368 5.83333 13.7368H7C9.57733 13.7368 11.6667 15.8105 11.6667 18.3684C11.6667 20.9264 9.57733 23 7 23H0V19.5263Z" fill="#FA9F42"/>
<path d="M16.3333 19.5263C16.3333 16.3289 18.945 13.7368 22.1667 13.7368H23.3333C25.9107 13.7368 28 15.8105 28 18.3684C28 20.9264 25.9107 23 23.3333 23H16.3333V19.5263Z" fill="#FA9F42"/>
<defs>
<filter id="filter0_d_1_223" x="35" y="0" width="140" height="32" filterUnits="userSpaceOnUse" color-interpolation-filters="sRGB">
<feFlood flood-opacity="0" result="BackgroundImageFix"/>
<feColorMatrix in="SourceAlpha" type="matrix" values="0 0 0 0 0 0 0 0 0 0 0 0 0 0 0 0 0 0 127 0" result="hardAlpha"/>
<feOffset dy="4"/>
<feGaussianBlur stdDeviation="2"/>
<feComposite in2="hardAlpha" operator="out"/>
<feColorMatrix type="matrix" values="0 0 0 0 0 0 0 0 0 0 0 0 0 0 0 0 0 0 0.25 0"/>
<feBlend mode="normal" in2="BackgroundImageFix" result="effect1_dropShadow_1_223"/>
<feBlend mode="normal" in="SourceGraphic" in2="effect1_dropShadow_1_223" result="shape"/>
</filter>
</defs>
</svg>
